<svg width="16" height="16" viewBox="0 0 16 16" fill="none" xmlns="http://www.w3.org/2000/svg">
<g clip-path="url(#clip0_1008_77)">
<rect width="16" height="16" fill="white"/>
<path d="M13.9375 9.46875C13.9375 10.151 13.8203 10.7786 13.5859 11.3516C13.3516 11.9245 13.026 12.4193 12.6094 12.8359C12.1927 13.2526 11.6979 13.5781 11.125 13.8125C10.5573 14.0417 9.9375 14.1562 9.26562 14.1562H6.51562C5.84375 14.1562 5.22135 14.0417 4.64844 13.8125C4.07552 13.5781 3.58073 13.2526 3.16406 12.8359C2.7474 12.4193 2.41927 11.9245 2.17969 11.3516C1.94531 10.7786 1.82812 10.151 1.82812 9.46875V7.32812C1.82812 6.65104 1.94531 6.02604 2.17969 5.45312C2.41927 4.875 2.7474 4.38021 3.16406 3.96875C3.58073 3.55208 4.07552 3.22656 4.64844 2.99219C5.22135 2.75781 5.84375 2.64062 6.51562 2.64062H9.26562C9.9375 2.64062 10.5573 2.75781 11.125 2.99219C11.6979 3.22656 12.1927 3.55208 12.6094 3.96875C13.026 4.38021 13.3516 4.875 13.5859 5.45312C13.8203 6.02604 13.9375 6.65104 13.9375 7.32812V9.46875ZM11.9062 7.32812C11.9062 6.92708 11.8411 6.5651 11.7109 6.24219C11.5859 5.91406 11.4062 5.63542 11.1719 5.40625C10.9427 5.17188 10.6641 4.99219 10.3359 4.86719C10.013 4.73698 9.65625 4.67188 9.26562 4.67188H6.51562C6.11979 4.67188 5.75781 4.73698 5.42969 4.86719C5.10677 4.99219 4.82812 5.17188 4.59375 5.40625C4.35938 5.63542 4.17708 5.91406 4.04688 6.24219C3.92188 6.5651 3.85938 6.92708 3.85938 7.32812V9.46875C3.85938 9.86979 3.92188 10.2344 4.04688 10.5625C4.17708 10.8854 4.35938 11.1641 4.59375 11.3984C4.82812 11.6276 5.10677 11.8073 5.42969 11.9375C5.75781 12.0625 6.11979 12.125 6.51562 12.125H9.25C9.64583 12.125 10.0052 12.0625 10.3281 11.9375C10.6562 11.8073 10.9375 11.6276 11.1719 11.3984C11.4062 11.1641 11.5859 10.8854 11.7109 10.5625C11.8411 10.2344 11.9062 9.86979 11.9062 9.46875V7.32812Z" fill="#893EA0"/>
<path d="M21.0825 -5.08248H12.9175V3.08248H21.0825V-5.08248ZM8.70711 8.70711L17.7071 -0.292893L16.2929 -1.70711L7.29289 7.29289L8.70711 8.70711Z" fill="#EDD713"/>
<path d="M2.66667 16C2.66667 14.5272 1.47276 13.3333 0 13.3333C-1.47276 13.3333 -2.66667 14.5272 -2.66667 16C-2.66667 17.4728 -1.47276 18.6667 0 18.6667C1.47276 18.6667 2.66667 17.4728 2.66667 16ZM6.64645 8.64645L-0.353553 15.6464L0.353553 16.3536L7.35355 9.35355L6.64645 8.64645Z" fill="#6A87CA"/>
<path d="M16 13.3333C14.5272 13.3333 13.3333 14.5272 13.3333 16C13.3333 17.4728 14.5272 18.6667 16 18.6667C17.4728 18.6667 18.6667 17.4728 18.6667 16C18.6667 14.5272 17.4728 13.3333 16 13.3333ZM8.64645 9.35355L15.6464 16.3536L16.3536 15.6464L9.35355 8.64645L8.64645 9.35355Z" fill="#6A87CA"/>
<path d="M8 8.16719V8" stroke="black" stroke-width="3" stroke-linecap="round"/>
</g>
<defs>
<clipPath id="clip0_1008_77">
<rect width="16" height="16" fill="white"/>
</clipPath>
</defs>
</svg>
