<svg width="500" height="500" viewBox="0 0 500 500" fill="none" xmlns="http://www.w3.org/2000/svg">
<g clip-path="url(#clip0_1022_355)">
<path d="M406.193 60.5255C437.086 86.8981 460.584 120.847 474.388 159.033C473.745 158.741 472.83 158.337 471.676 157.857C469.242 156.846 465.742 155.493 461.467 154.128C452.923 151.399 441.269 148.612 428.862 148.401C416.453 148.19 403.263 150.555 391.679 158.159C380.087 165.768 370.156 178.588 364.212 199.189C358.323 219.601 348.516 232.204 337.157 239.66C325.79 247.121 312.816 249.463 300.54 249.254C288.263 249.046 276.711 246.286 268.221 243.575C263.978 242.219 260.505 240.877 258.093 239.874C256.887 239.373 255.947 238.957 255.31 238.666C254.991 238.521 254.748 238.407 254.585 238.33C254.579 238.327 254.573 238.325 254.568 238.322C254.565 238.309 254.563 238.295 254.56 238.28C254.525 238.086 254.471 237.799 254.398 237.427C254.252 236.682 254.03 235.594 253.721 234.22C253.103 231.472 252.14 227.576 250.761 222.981C248.004 213.795 243.578 201.801 236.9 190.597C230.225 179.396 221.278 168.949 209.466 162.91C197.635 156.861 182.983 155.262 164.972 161.669C147.195 167.993 132.831 166.392 121.268 160.48C109.685 154.558 100.86 144.284 94.2372 133.171C87.6164 122.062 83.2181 110.152 80.4747 101.011C79.1035 96.4428 78.1469 92.5701 77.5333 89.8407C77.2265 88.4761 77.0056 87.3976 76.8614 86.6611C76.7894 86.2928 76.7365 86.0101 76.7017 85.8199C76.6982 85.8004 76.6948 85.7818 76.6916 85.7643C103.415 54.7537 137.8 31.2875 176.42 17.7063C215.116 4.09893 256.706 0.892048 297.03 8.40657C337.354 15.9211 374.997 33.8935 406.193 60.5255Z" fill="#6A87CA" stroke="black"/>
<path d="M335.528 482.466C297.011 495.363 255.809 498.019 215.967 490.185C216.549 489.784 217.366 489.207 218.372 488.465C220.493 486.9 223.455 484.596 226.826 481.635C233.567 475.717 241.958 467.163 248.529 456.636C255.101 446.109 259.867 433.585 259.315 419.739C258.763 405.884 252.89 390.768 238.293 375.063C223.83 359.502 218.077 344.605 217.537 331.028C216.996 317.442 221.67 305.115 228.172 294.7C234.674 284.284 242.989 275.803 249.686 269.923C253.033 266.984 255.973 264.698 258.074 263.147C259.125 262.372 259.966 261.78 260.543 261.383C260.832 261.185 261.055 261.035 261.205 260.935C261.21 260.932 261.215 260.928 261.22 260.925C261.233 260.93 261.246 260.935 261.26 260.94C261.445 261.009 261.718 261.111 262.075 261.241C262.789 261.499 263.836 261.868 265.173 262.311C267.847 263.197 271.682 264.379 276.331 265.563C285.624 267.931 298.185 270.314 311.228 270.361C324.268 270.408 337.83 268.12 349.091 261.106C360.369 254.08 369.286 242.344 373.071 223.606C376.806 205.112 385.576 193.623 396.599 186.757C407.64 179.879 420.993 177.606 433.929 177.652C446.861 177.699 459.336 180.063 468.584 182.419C473.206 183.597 477.018 184.772 479.674 185.651C481.001 186.091 482.04 186.457 482.745 186.713C483.098 186.841 483.368 186.941 483.548 187.009C483.567 187.016 483.585 187.023 483.601 187.029C496.419 225.907 498.824 267.467 490.574 307.566C482.308 347.743 463.636 385.044 436.426 415.738C409.216 446.432 374.423 469.442 335.528 482.466Z" fill="#6A87CA" stroke="black"/>
<path d="M7.47601 214.067C14.5777 174.074 31.9565 136.623 57.8974 105.385C57.9714 106.087 58.0866 107.08 58.2573 108.319C58.6169 110.93 59.2231 114.633 60.2097 119.01C62.1821 127.761 65.6791 139.221 71.7792 150.028C77.8798 160.835 86.5976 171.012 99.0198 177.152C111.45 183.296 127.534 185.37 148.309 180.065C168.893 174.809 184.726 176.885 196.907 182.906C209.097 188.93 217.685 198.933 223.72 209.625C229.756 220.318 233.225 231.677 235.185 240.371C236.164 244.716 236.766 248.391 237.122 250.979C237.3 252.272 237.417 253.293 237.49 253.99C237.526 254.339 237.551 254.606 237.567 254.786C237.567 254.792 237.568 254.798 237.568 254.804C237.558 254.813 237.547 254.822 237.536 254.832C237.387 254.961 237.166 255.152 236.882 255.404C236.313 255.907 235.488 256.65 234.46 257.612C232.402 259.536 229.53 262.339 226.266 265.854C219.74 272.882 211.638 282.772 205.357 294.204C199.078 305.631 194.598 318.636 195.371 331.88C196.145 345.144 202.184 358.59 216.828 370.878C231.282 383.006 237.174 396.203 237.93 409.168C238.688 422.154 234.296 434.967 228.066 446.305C221.838 457.639 213.794 467.462 207.301 474.455C204.055 477.951 201.2 480.737 199.157 482.648C198.135 483.603 197.317 484.34 196.755 484.837C196.474 485.085 196.257 485.274 196.11 485.4C196.095 485.413 196.081 485.426 196.068 485.437C155.795 478.093 118.15 460.322 86.8846 433.893C55.5588 407.413 31.7362 373.171 17.8004 334.593C3.86467 296.015 0.304461 254.454 7.47601 214.067Z" fill="#FFFC62" stroke="black"/>
<path d="M443.083 250.499L442.316 227.348C442.304 226.983 442.358 226.643 442.478 226.326C442.597 226.01 442.764 225.73 442.977 225.489C443.204 225.26 443.472 225.075 443.78 224.935C444.088 224.794 444.424 224.718 444.788 224.706L470.224 223.863L470.392 228.939L447.475 229.698L448.158 250.331L443.083 250.499Z" fill="black"/>
<path d="M468.698 262.569L469.075 257.505L473.652 257.846L473.275 262.91L468.698 262.569ZM443.319 260.68L443.696 255.616L464.751 257.183L464.374 262.248L443.319 260.68Z" fill="black"/>
<path d="M439.27 289.549L440.188 284.555L451.714 286.672C452.367 286.792 452.971 286.784 453.525 286.648C454.09 286.527 454.594 286.308 455.036 285.992C455.478 285.676 455.843 285.273 456.132 284.783C456.431 284.309 456.636 283.77 456.746 283.169L458.352 274.428L442.581 271.531L443.498 266.536L461.786 269.896C462.132 269.96 462.44 270.082 462.711 270.265C462.995 270.449 463.225 270.677 463.4 270.947C463.588 271.22 463.718 271.522 463.79 271.853C463.861 272.184 463.865 272.522 463.802 272.868L461.734 284.125C461.618 284.752 461.427 285.399 461.159 286.064C460.889 286.743 460.531 287.392 460.086 288.012C459.652 288.647 459.135 289.227 458.535 289.753C457.946 290.293 457.262 290.737 456.483 291.083C455.715 291.445 454.857 291.685 453.909 291.802C452.961 291.919 451.923 291.874 450.796 291.667L439.27 289.549Z" fill="black"/>
<path d="M431.874 317.837L433.962 310.816L446.353 303.824C447.015 303.424 447.716 303.353 448.453 303.613C448.795 303.742 449.094 303.926 449.349 304.165C449.613 304.42 449.81 304.717 449.94 305.054L454.465 316.079L452.149 323.867L446.327 309.665L431.874 317.837ZM437.476 299.004L438.924 294.136L467.716 302.7L466.268 307.568L437.476 299.004Z" fill="black"/>
<path d="M413.805 366.994C413.265 366.678 412.742 366.244 412.236 365.692C411.723 365.15 411.328 364.511 411.049 363.775C410.764 363.05 410.639 362.245 410.674 361.361C410.72 360.483 411.03 359.555 411.602 358.577L421.337 341.938C421.521 341.624 421.748 341.364 422.018 341.16C422.288 340.956 422.578 340.809 422.888 340.719C423.202 340.646 423.527 340.632 423.862 340.678C424.198 340.723 424.523 340.838 424.837 341.022L444.595 352.582C444.898 352.76 445.152 352.983 445.356 353.254C445.56 353.524 445.707 353.814 445.797 354.123C445.881 354.444 445.901 354.772 445.855 355.107C445.81 355.443 445.695 355.768 445.511 356.083L436.93 370.749C436.614 371.288 436.18 371.811 435.627 372.317C435.074 372.824 434.43 373.216 433.694 373.494C432.962 373.791 432.158 373.916 431.279 373.869C430.395 373.834 429.463 373.531 428.486 372.959L427.66 372.476C426.884 372.022 426.123 371.403 425.375 370.618C424.638 369.84 424.039 368.931 423.576 367.891C422.983 368.208 422.348 368.455 421.671 368.632C420.988 368.821 420.27 368.914 419.517 368.911C418.765 368.908 417.978 368.795 417.159 368.572C416.339 368.348 415.502 367.987 414.648 367.487L413.805 366.994ZM417.212 363.104C417.785 363.44 418.349 363.649 418.904 363.732C419.47 363.822 420.011 363.799 420.528 363.664C421.045 363.529 421.522 363.28 421.96 362.918C422.41 362.562 422.802 362.098 423.137 361.525L428.917 351.646L433.334 354.23L428.708 362.137C428.373 362.71 428.154 363.276 428.053 363.836C427.964 364.402 427.986 364.943 428.122 365.459C428.257 365.976 428.5 366.45 428.851 366.882C429.206 367.331 429.671 367.724 430.244 368.059L431.07 368.542C431.699 368.91 432.191 368.791 432.547 368.184L439.855 355.693L424.447 346.677L415.985 361.141C415.939 361.22 415.888 361.319 415.834 361.438C415.779 361.557 415.754 361.678 415.757 361.8C415.761 361.923 415.81 362.058 415.906 362.204C416.001 362.35 416.167 362.493 416.403 362.631L417.212 363.104Z" fill="black"/>
<path d="M391.544 388.167C391.258 387.942 391.031 387.682 390.865 387.387C390.7 387.091 390.597 386.779 390.557 386.45C390.519 386.139 390.546 385.821 390.636 385.495C390.718 385.179 390.868 384.882 391.084 384.605L398.167 375.565C398.553 375.073 399.023 374.59 399.577 374.114C400.124 373.649 400.733 373.241 401.404 372.891C402.086 372.548 402.817 372.269 403.598 372.054C404.381 371.857 405.193 371.782 406.033 371.828C406.884 371.883 407.76 372.073 408.662 372.399C409.556 372.736 410.454 373.258 411.356 373.964L420.581 381.192L417.449 385.189L408.224 377.962C407.702 377.552 407.162 377.27 406.605 377.115C406.051 376.978 405.504 376.947 404.966 377.022C404.428 377.096 403.916 377.274 403.431 377.556C402.948 377.855 402.518 378.246 402.141 378.728L396.66 385.723L409.282 395.613L406.15 399.61L391.544 388.167Z" fill="black"/>
<path d="M399.46 412.819L402.804 408.997L406.258 412.019L402.915 415.841L399.46 412.819ZM380.306 396.062L383.65 392.24L399.54 406.142L396.197 409.964L380.306 396.062Z" fill="black"/>
<path d="M367.325 406.054L368.991 404.518C369.527 404.024 370.185 403.586 370.966 403.203C371.737 402.829 372.575 402.605 373.481 402.531C374.396 402.467 375.33 402.607 376.284 402.95C377.246 403.302 378.173 403.962 379.064 404.929L394.591 421.775L390.857 425.217L375.33 408.371C374.907 407.911 374.423 407.675 373.88 407.662C373.346 407.658 372.863 407.855 372.433 408.252L370.767 409.788L367.325 406.054Z" fill="black"/>
<path d="M347.024 427.534C346.505 426.833 346.125 426.134 345.885 425.437C345.652 424.751 345.523 424.085 345.499 423.439C345.482 422.803 345.555 422.19 345.717 421.6C345.887 421.02 346.117 420.478 346.407 419.971C346.686 419.473 347.011 419.014 347.38 418.595C347.748 418.193 348.125 417.849 348.512 417.563L355.874 412.112C356.575 411.593 357.269 411.217 357.956 410.985C358.642 410.752 359.308 410.623 359.954 410.599C360.597 410.592 361.214 410.67 361.804 410.833C362.384 411.003 362.923 411.228 363.421 411.507C363.927 411.797 364.386 412.121 364.798 412.481C365.207 412.858 365.551 413.235 365.83 413.612L369.921 419.138C370.695 420.184 371.162 421.208 371.319 422.209C371.474 423.228 371.436 424.172 371.204 425.04C370.969 425.927 370.591 426.718 370.068 427.412C369.546 428.107 369.002 428.663 368.437 429.082L361.074 434.532L358.053 430.451L365.384 425.024C365.928 424.621 366.237 424.173 366.31 423.682C366.391 423.2 366.234 422.693 365.839 422.159L361.772 416.665C361.361 416.11 360.915 415.792 360.434 415.711C359.942 415.638 359.429 415.799 358.896 416.194L351.533 421.644C350.979 422.055 350.67 422.502 350.607 422.986C350.544 423.47 350.71 423.979 351.105 424.513L364.737 442.926L360.655 445.948L347.024 427.534Z" fill="black"/>
<path d="M348.045 450.414L352.427 447.848L354.746 451.808L350.365 454.375L348.045 450.414ZM335.183 428.455L339.564 425.888L350.235 444.106L345.853 446.673L335.183 428.455Z" fill="black"/>
<path d="M309.477 441.192L314.108 439.11L318.913 449.798C319.185 450.404 319.535 450.896 319.962 451.275C320.383 451.671 320.849 451.961 321.36 452.146C321.871 452.33 322.41 452.402 322.977 452.361C323.538 452.337 324.097 452.2 324.655 451.949L332.761 448.306L326.186 433.68L330.818 431.598L338.441 448.557C338.586 448.878 338.66 449.202 338.664 449.528C338.673 449.867 338.616 450.185 338.493 450.483C338.376 450.793 338.201 451.071 337.969 451.318C337.738 451.565 337.461 451.76 337.141 451.904L326.702 456.597C326.12 456.859 325.479 457.068 324.779 457.226C324.067 457.389 323.329 457.463 322.567 457.449C321.797 457.453 321.026 457.357 320.253 457.162C319.474 456.984 318.72 456.673 317.992 456.229C317.258 455.803 316.573 455.232 315.938 454.519C315.304 453.805 314.751 452.925 314.281 451.88L309.477 441.192Z" fill="black"/>
<path d="M283.321 447.191C283.051 446.362 282.914 445.585 282.911 444.86C282.903 444.123 282.992 443.45 283.178 442.842C283.359 442.221 283.622 441.663 283.967 441.167C284.308 440.659 284.696 440.211 285.131 439.822C285.554 439.438 286.009 439.112 286.496 438.843C286.968 438.566 287.432 438.353 287.89 438.204L296.6 435.366L298.173 440.194L289.464 443.032C288.808 443.246 288.373 443.573 288.16 444.012C287.947 444.451 287.944 444.986 288.15 445.618L293.118 460.864C293.324 461.495 293.64 461.919 294.067 462.136C294.498 462.365 295.041 462.373 295.698 462.159L304.407 459.321C305.001 459.127 305.411 458.788 305.637 458.304C305.866 457.832 305.89 457.317 305.709 456.76L303.578 450.224C303.373 449.592 303.048 449.164 302.605 448.939C302.162 448.713 301.618 448.706 300.975 448.915L292.302 451.742L290.729 446.913L299.438 444.075C299.896 443.926 300.395 443.818 300.935 443.752C301.479 443.698 302.041 443.699 302.621 443.757C303.189 443.818 303.758 443.948 304.329 444.145C304.905 444.355 305.446 444.651 305.954 445.033C306.466 445.427 306.934 445.919 307.359 446.506C307.787 447.106 308.136 447.821 308.407 448.65L310.537 455.187C310.686 455.645 310.794 456.144 310.86 456.684C310.914 457.228 310.911 457.783 310.849 458.351C310.792 458.931 310.664 459.507 310.467 460.078C310.257 460.653 309.961 461.195 309.579 461.703C309.184 462.215 308.693 462.683 308.106 463.107C307.518 463.532 306.81 463.879 305.98 464.149L297.271 466.988C296.813 467.137 296.312 467.238 295.768 467.292C295.216 467.363 294.656 467.367 294.088 467.306C293.508 467.248 292.93 467.115 292.355 466.905C291.784 466.708 291.243 466.412 290.73 466.017C290.222 465.635 289.756 465.15 289.332 464.563C288.908 463.975 288.56 463.267 288.29 462.437L283.321 447.191Z" fill="black"/>
<path d="M173.23 434.2L177.975 436.008L175.528 442.432L192.21 448.788L194.657 442.363L199.403 444.171L194.417 457.257C193.69 459.168 192.691 460.801 191.422 462.157C190.153 463.512 188.715 464.546 187.106 465.257C185.498 465.968 183.774 466.342 181.934 466.38C180.094 466.417 178.232 466.077 176.346 465.358L165.65 461.284C165.322 461.159 165.034 460.98 164.789 460.747C164.543 460.514 164.352 460.246 164.217 459.944C164.081 459.641 164.008 459.321 163.998 458.982C163.987 458.644 164.045 458.31 164.17 457.982L173.23 434.2ZM190.402 453.533L173.72 447.178L169.812 457.435L178.153 460.613C178.299 460.668 178.619 460.762 179.112 460.894C179.588 461.034 180.169 461.137 180.855 461.203C181.528 461.264 182.272 461.249 183.088 461.155C183.904 461.062 184.716 460.814 185.524 460.411C186.333 460.009 187.104 459.411 187.838 458.617C188.555 457.832 189.167 456.776 189.672 455.449L190.402 453.533Z" fill="black"/>
<path d="M145.908 438.667L156.19 443.65C156.811 443.951 157.356 444.02 157.826 443.857C158.29 443.705 158.667 443.331 158.956 442.733L165.063 430.131L169.633 432.346L163.526 444.948C163.146 445.733 162.705 446.388 162.205 446.912C161.705 447.437 161.177 447.854 160.622 448.164C160.049 448.479 159.467 448.696 158.874 448.814C158.276 448.944 157.692 449.001 157.121 448.984C156.538 448.962 155.984 448.882 155.458 448.743C154.915 448.61 154.432 448.441 154.01 448.237L143.693 443.237L145.908 438.667Z" fill="black"/>
<path d="M124.757 426.18L132.369 430.728L140.593 416.962L145.002 419.597L136.778 433.362L142.446 436.748L139.841 441.107L134.174 437.722L130.638 443.64L126.228 441.006L129.764 435.087L122.152 430.54L124.757 426.18Z" fill="black"/>
<path d="M111.645 427.021L115.761 429.995L113.073 433.715L108.957 430.741L111.645 427.021ZM126.552 406.394L130.667 409.369L118.301 426.481L114.185 423.507L126.552 406.394Z" fill="black"/>
<path d="M106.66 388.396L117.075 397.403C117.607 397.863 118.107 398.459 118.575 399.192C119.044 399.924 119.366 400.736 119.541 401.628C119.698 402.521 119.665 403.465 119.442 404.46C119.2 405.456 118.649 406.451 117.789 407.446L113.292 412.646C112.976 413.01 112.605 413.36 112.177 413.696C111.739 414.023 111.261 414.307 110.743 414.548C110.217 414.798 109.658 414.986 109.067 415.112C108.466 415.23 107.85 415.256 107.217 415.191C106.575 415.117 105.92 414.939 105.254 414.655C104.587 414.371 103.924 413.943 103.264 413.373L92.8488 404.365L96.1707 400.524L106.586 409.532C107.088 409.966 107.583 410.17 108.07 410.144C108.547 410.11 109.016 409.826 109.476 409.295L113.948 404.124C114.382 403.622 114.581 403.123 114.546 402.627C114.51 402.131 114.236 401.662 113.723 401.219L103.338 392.237L106.66 388.396Z" fill="black"/>
<path d="M96.7366 377.01L98.3145 378.635C98.8224 379.159 99.2777 379.805 99.6806 380.576C100.074 381.337 100.32 382.169 100.417 383.073C100.505 383.986 100.389 384.923 100.071 385.885C99.7434 386.857 99.1078 387.8 98.1641 388.716L81.7243 404.672L78.1875 401.029L94.6273 385.072C95.0758 384.637 95.2995 384.147 95.2984 383.604C95.2879 383.07 95.0787 382.593 94.6706 382.172L93.0926 380.546L96.7366 377.01Z" fill="black"/>
<path d="M66.4536 364.005C66.9989 363.561 67.6677 363.176 68.4601 362.85C69.2424 362.532 70.0829 362.368 70.9816 362.359C71.8621 362.347 72.7677 362.542 73.6984 362.943C74.6209 363.334 75.4849 364.024 76.2904 365.013L82.0731 372.117L78.3317 375.163L72.549 368.059C72.1134 367.524 71.6148 367.241 71.0532 367.211C70.4816 367.19 69.9535 367.376 69.4687 367.771C68.9537 368.19 68.6854 368.685 68.6638 369.257C68.634 369.818 68.8082 370.332 69.1863 370.796L74.969 377.9C75.4046 378.435 75.9083 378.714 76.4799 378.735C77.0414 378.765 77.5645 378.583 78.0492 378.188L83.5478 373.713C84.0729 373.285 84.3503 372.791 84.3801 372.229C84.4017 371.657 84.2153 371.129 83.8207 370.645L78.0627 363.571L81.8192 360.513L87.6019 367.617C88.0458 368.162 88.4307 368.831 88.7567 369.624C89.0745 370.406 89.2432 371.242 89.263 372.133C89.2644 373.022 89.0697 373.927 88.679 374.85C88.2781 375.78 87.5829 376.648 86.5932 377.454L81.0644 381.954C80.5191 382.398 79.8553 382.779 79.073 383.097C78.2807 383.423 77.4443 383.592 76.5638 383.603C75.665 383.613 74.7544 383.422 73.8319 383.031C72.9012 382.631 72.0331 381.935 71.2275 380.946L65.4449 373.841C65.001 373.296 64.6202 372.632 64.3024 371.85C63.9764 371.058 63.8127 370.217 63.8113 369.329C63.7915 368.438 63.9821 367.527 64.383 366.597C64.7737 365.674 65.4639 364.81 66.4536 364.005Z" fill="black"/>
<path d="M61.9119 317.338L68.1772 334.553C68.3375 334.994 68.4622 335.489 68.5514 336.038C68.6238 336.58 68.6412 337.142 68.6036 337.724C68.5614 338.293 68.4515 338.867 68.2736 339.444C68.0835 340.026 67.8084 340.583 67.4481 341.116C67.0711 341.641 66.5962 342.126 66.0234 342.57C65.4384 343.019 64.736 343.392 63.9162 343.69L50.9952 348.393C50.5548 348.553 50.0659 348.675 49.5286 348.76C48.9746 348.837 48.4128 348.854 47.8432 348.812C47.2614 348.775 46.6796 348.661 46.0977 348.471C45.5159 348.281 44.9646 348.003 44.4439 347.638C43.9064 347.266 43.4157 346.793 42.9717 346.22C42.5277 345.648 42.1565 344.951 41.8582 344.132L35.5928 326.916L40.3647 325.179L46.6301 342.395C46.8572 343.019 47.1961 343.436 47.6466 343.646C48.0972 343.856 48.6468 343.843 49.2953 343.607L62.1795 338.918C62.7913 338.696 63.2084 338.357 63.4307 337.902C63.6364 337.439 63.6279 336.902 63.4053 336.29L57.1399 319.074L61.9119 317.338Z" fill="black"/>
<path d="M39.3657 300.723L42.3225 311.76C42.5011 312.426 42.8057 312.884 43.2362 313.133C43.6542 313.385 44.184 313.425 44.8254 313.253L58.3522 309.629L59.6664 314.534L46.1395 318.158C45.2969 318.384 44.5136 318.479 43.7897 318.444C43.0658 318.409 42.4052 318.282 41.8077 318.065C41.1943 317.838 40.6492 317.54 40.1724 317.169C39.683 316.801 39.2577 316.396 38.8965 315.953C38.532 315.498 38.2303 315.027 37.9915 314.538C37.7368 314.04 37.5488 313.565 37.4275 313.112L34.4605 302.037L39.3657 300.723Z" fill="black"/>
<path d="M35.9643 275.814C36.6567 275.692 37.4283 275.681 38.2792 275.783C39.1171 275.886 39.931 276.152 40.7206 276.582C41.4952 277.001 42.1913 277.612 42.8089 278.415C43.4242 279.206 43.8427 280.229 44.0642 281.486L45.6546 290.507L40.9036 291.345L39.3133 282.324C39.1935 281.644 38.8956 281.154 38.4197 280.855C37.931 280.558 37.3789 280.463 36.7634 280.572C36.1094 280.687 35.6338 280.989 35.3365 281.478C35.037 281.954 34.9392 282.486 35.0432 283.076L36.6335 292.097C36.7534 292.777 37.0576 293.265 37.5463 293.563C38.0222 293.862 38.5679 293.958 39.1834 293.849L46.1656 292.618C46.8324 292.501 47.3156 292.204 47.6151 291.728C47.9124 291.239 48.0068 290.687 47.8983 290.072L46.3147 281.089L51.0849 280.248L52.6752 289.269C52.7973 289.962 52.8077 290.733 52.7065 291.584C52.603 292.422 52.343 293.235 51.9265 294.022C51.495 294.799 50.8839 295.495 50.0933 296.111C49.2899 296.728 48.2599 297.148 47.0032 297.369L39.9825 298.607C39.2901 298.729 38.5249 298.738 37.6869 298.635C36.8361 298.534 36.0234 298.274 35.2488 297.855C34.4592 297.426 33.7567 296.816 33.1413 296.025C32.5237 295.222 32.1041 294.192 31.8826 292.935L30.2922 283.914C30.1702 283.221 30.1609 282.456 30.2643 281.618C30.3656 280.767 30.632 279.954 31.0635 279.177C31.48 278.389 32.09 277.687 32.8934 277.069C33.684 276.454 34.7076 276.035 35.9643 275.814Z" fill="black"/>
<path d="M42.8902 251.894C43.5906 251.832 44.3602 251.889 45.199 252.064C46.0247 252.24 46.8123 252.577 47.5615 253.073C48.2966 253.558 48.9368 254.227 49.482 255.081C50.0261 255.923 50.3538 256.979 50.465 258.25L51.263 267.375C51.3243 268.076 51.2674 268.845 51.0924 269.684C50.9163 270.51 50.5865 271.297 50.1029 272.045C49.6053 272.781 48.9359 273.421 48.0947 273.966C47.2405 274.511 46.1778 274.839 44.9066 274.95C44.2062 275.011 43.4366 274.955 42.5978 274.78C41.7591 274.605 40.9721 274.275 40.237 273.79C39.4878 273.294 38.8411 272.625 38.297 271.783C37.7517 270.929 37.4235 269.867 37.3124 268.595L36.5143 259.47L41.3396 259.048L42.1377 268.173C42.1978 268.861 42.4584 269.374 42.9193 269.713C43.3673 270.053 43.9026 270.195 44.5252 270.141C45.1868 270.083 45.6869 269.824 46.0256 269.363C46.3503 268.89 46.4865 268.355 46.4343 267.758L45.6396 258.672C45.5795 257.985 45.3255 257.471 44.8775 257.131C44.4295 256.791 43.8942 256.648 43.2716 256.703L36.2087 257.321C35.5471 257.378 35.04 257.632 34.6871 258.081C34.3331 258.517 34.1834 259.047 34.2378 259.669L35.2095 270.779L30.4036 271.199L29.432 260.089C29.3707 259.389 29.4281 258.626 29.6043 257.8C29.7792 256.961 30.1156 256.174 30.6132 255.438C31.0967 254.69 31.7656 254.043 32.6198 253.498C33.461 252.954 34.5172 252.626 35.7884 252.515L42.8902 251.894Z" fill="black"/>
<path d="M33.9445 228.005L33.4129 236.856L49.4193 237.817L49.1114 242.945L33.1051 241.984L32.7094 248.573L27.6404 248.269L28.0361 241.679L21.1539 241.266L21.4618 236.138L28.344 236.552L28.8755 227.7L33.9445 228.005Z" fill="black"/>
<path d="M27.388 218.384L26.9453 223.442L22.3729 223.042L22.8157 217.983L27.388 218.384ZM52.7403 220.603L52.2976 225.661L31.2647 223.82L31.7074 218.762L52.7403 220.603Z" fill="black"/>
<path d="M50.2059 190.508C51.065 190.659 51.8216 190.905 52.4756 191.245C53.1168 191.583 53.6686 191.978 54.131 192.43C54.5806 192.879 54.9495 193.374 55.2377 193.914C55.513 194.452 55.7198 195.004 55.8579 195.57C55.9982 196.124 56.0786 196.68 56.099 197.239C56.1089 197.783 56.072 198.292 55.9883 198.766L54.3974 207.787C54.2753 208.48 54.02 209.215 53.6317 209.993C53.2433 210.77 52.7112 211.463 52.0355 212.071C51.3491 212.664 50.5217 213.12 49.5533 213.438C48.5743 213.741 47.4372 213.779 46.1421 213.551L39.3716 212.356C38.0893 212.13 37.0464 211.708 36.2431 211.091C35.4291 210.458 34.8075 209.747 34.3783 208.957C33.9384 208.152 33.6691 207.318 33.5702 206.455C33.4713 205.591 33.4829 204.813 33.605 204.12L35.1959 195.099C35.4221 193.817 35.8451 192.768 36.465 191.952C37.085 191.136 37.7962 190.514 38.5987 190.087C39.3884 189.658 40.215 189.394 41.0787 189.295C41.9446 189.183 42.7301 189.189 43.4354 189.314L50.2059 190.508ZM42.5919 194.321C41.8995 194.199 41.356 194.282 40.9616 194.569C40.5671 194.857 40.3122 195.327 40.1969 195.981L38.6127 204.964C38.4951 205.631 38.5789 206.168 38.8641 206.575C39.1364 206.98 39.5996 207.24 40.2535 207.356L47.024 208.55C47.678 208.665 48.2086 208.58 48.6159 208.295C49.0232 208.01 49.2856 207.534 49.4032 206.867L50.9874 197.884C51.1072 197.205 51.0235 196.668 50.736 196.273C50.4486 195.879 49.9779 195.624 49.3239 195.509L42.5919 194.321Z" fill="black"/>
<path d="M64.3469 166.14L63.0324 171.045L51.7131 168.011C51.0717 167.839 50.4691 167.799 49.9053 167.891C49.3324 167.966 48.813 168.144 48.3471 168.424C47.8813 168.703 47.4849 169.075 47.1581 169.541C46.822 169.99 46.5748 170.51 46.4164 171.101L44.116 179.685L59.6047 183.835L58.2902 188.741L40.3302 183.928C39.9906 183.837 39.693 183.689 39.4375 183.486C39.1693 183.279 38.9587 183.034 38.8055 182.751C38.6398 182.464 38.5345 182.152 38.4896 181.817C38.4448 181.481 38.4678 181.144 38.5588 180.804L41.5214 169.749C41.6866 169.132 41.9293 168.503 42.2497 167.861C42.5734 167.207 42.9818 166.588 43.4749 166.006C43.9587 165.407 44.5205 164.871 45.1602 164.395C45.7907 163.903 46.5079 163.516 47.3118 163.233C48.1064 162.933 48.981 162.763 49.9356 162.722C50.8901 162.682 51.9208 162.81 53.0276 163.106L64.3469 166.14Z" fill="black"/>
<path d="M140.772 82.8856C141.73 84.2974 142.368 85.7604 142.687 87.2747C143.006 88.789 143.026 90.2695 142.749 91.7163C142.471 93.163 141.904 94.5308 141.048 95.8196C140.194 97.0904 139.073 98.1971 137.683 99.1398L131.993 102.998C130.602 103.941 129.154 104.577 127.647 104.907C126.132 105.226 124.652 105.247 123.205 104.969C121.758 104.692 120.385 104.128 119.086 103.279C117.797 102.422 116.674 101.288 115.716 99.8764L112.713 95.4472C111.763 94.0462 111.128 92.5886 110.809 91.0743C110.494 89.5419 110.479 88.0577 110.764 86.6217C111.041 85.175 111.608 83.8072 112.465 82.5184C113.321 81.2296 114.445 80.1138 115.835 79.1711L121.525 75.3125C122.915 74.3698 124.362 73.7426 125.865 73.431C127.38 73.1121 128.86 73.0914 130.307 73.3689C131.747 73.6357 133.114 74.2027 134.41 75.0701C135.699 75.9266 136.819 77.0554 137.769 78.4564L140.772 82.8856ZM133.566 81.3065C133.003 80.4767 132.36 79.819 131.638 79.3336C130.919 78.83 130.156 78.5056 129.35 78.3603C128.547 78.1969 127.718 78.216 126.864 78.4178C126.013 78.6015 125.183 78.9673 124.375 79.5154L118.685 83.374C117.866 83.9294 117.208 84.572 116.712 85.3018C116.219 86.0135 115.895 86.7763 115.739 87.5901C115.575 88.3931 115.589 89.2255 115.78 90.0871C115.975 90.9306 116.353 91.7673 116.916 92.5971L119.919 97.0263C120.482 97.8561 121.123 98.5228 121.842 99.0264C122.564 99.5118 123.333 99.8326 124.146 99.9887C124.953 100.134 125.782 100.115 126.632 99.9312C127.487 99.7294 128.323 99.3508 129.142 98.7954L134.8 94.9588C135.619 94.4034 136.275 93.7699 136.768 93.0581C137.264 92.3283 137.594 91.5619 137.757 90.7589C137.913 89.9451 137.894 89.1164 137.7 88.2728C137.509 87.4112 137.132 86.5655 136.569 85.7357L133.566 81.3065Z" fill="black"/>
<path d="M170.753 80.3474L166.224 82.6425L160.927 72.1889C160.627 71.5965 160.255 71.121 159.81 70.7623C159.372 70.3862 158.893 70.1179 158.374 69.9576C157.854 69.7973 157.313 69.7507 156.748 69.8178C156.189 69.8673 155.637 70.0304 155.091 70.307L147.164 74.3234L154.411 88.6274L149.881 90.9225L141.478 74.3361C141.319 74.0225 141.23 73.7027 141.21 73.3767C141.185 73.0391 141.227 72.7186 141.336 72.4152C141.44 72.1002 141.601 71.814 141.821 71.5566C142.041 71.2992 142.308 71.0911 142.621 70.9322L152.831 65.7594C153.4 65.4711 154.031 65.2319 154.723 65.0419C155.426 64.846 156.159 64.7373 156.922 64.7157C157.69 64.6767 158.465 64.7367 159.246 64.8956C160.033 65.037 160.8 65.3124 161.548 65.7219C162.301 66.1139 163.012 66.6517 163.679 67.3353C164.347 68.0188 164.939 68.8717 165.457 69.8938L170.753 80.3474Z" fill="black"/>
<path d="M220.445 50.0251C220.692 51.1572 220.773 52.1991 220.688 53.1507C220.603 54.1023 220.394 54.9744 220.06 55.7669C219.737 56.5439 219.316 57.2422 218.799 57.8618C218.281 58.4813 217.712 59.0188 217.092 59.4742C216.484 59.9268 215.846 60.2995 215.177 60.5922C214.52 60.8822 213.887 61.0939 213.276 61.2273L202.057 63.6785L200.973 58.7174L212.193 56.2662C212.817 56.0764 213.362 55.8241 213.826 55.5094C214.301 55.1792 214.683 54.7957 214.975 54.359C215.266 53.9222 215.459 53.4335 215.554 52.8929C215.646 52.3396 215.623 51.745 215.484 51.1089L214.992 48.8573C214.792 48.2479 214.534 47.7047 214.216 47.2276C213.899 46.7505 213.522 46.3664 213.085 46.0753C212.661 45.7814 212.179 45.5869 211.638 45.4918C211.095 45.3839 210.499 45.4009 209.85 45.5426L198.668 47.9854C198.007 48.1299 197.542 48.4114 197.273 48.8299C197.005 49.2484 196.942 49.7821 197.083 50.4308L201.54 70.8286L196.578 71.9125L192.122 51.5147C191.844 50.2426 191.837 49.1113 192.1 48.1208C192.377 47.1275 192.798 46.2823 193.366 45.5853C193.946 44.8854 194.617 44.3257 195.378 43.9062C196.137 43.4739 196.859 43.1827 197.546 43.0326L208.766 40.5815C209.885 40.3369 210.922 40.2637 211.877 40.3617C212.828 40.447 213.694 40.6577 214.474 40.9938C215.263 41.3144 215.962 41.735 216.569 42.2555C217.188 42.7732 217.726 43.3421 218.181 43.9624C218.646 44.5671 219.025 45.204 219.318 45.8731C219.608 46.5294 219.82 47.1629 219.953 47.7735L220.445 50.0251Z" fill="black"/>
<path d="M246.963 57.1706C247.025 57.871 246.968 58.6406 246.794 59.4795C246.619 60.3055 246.283 61.0933 245.787 61.843C245.303 62.5785 244.635 63.2193 243.781 63.7654C242.94 64.3102 241.884 64.6389 240.613 64.7512L231.489 65.5577C230.788 65.6196 230.019 65.5634 229.18 65.3892C228.354 65.2138 227.566 64.8847 226.818 64.4019C226.081 63.9049 225.44 63.2361 224.896 62.3954C224.349 61.5417 224.02 60.4793 223.908 59.2082C223.846 58.5078 223.902 57.7382 224.076 56.8993C224.251 56.0604 224.58 55.2731 225.064 54.5376C225.56 53.7879 226.228 53.1406 227.069 52.5957C227.922 52.0497 228.985 51.7205 230.256 51.6081L239.38 50.8017L239.807 55.6266L230.682 56.4331C229.995 56.4938 229.482 56.7549 229.144 57.2161C228.804 57.6644 228.662 58.1998 228.717 58.8224C228.775 59.4839 229.035 59.9838 229.496 60.3221C229.97 60.6463 230.504 60.782 231.101 60.7293L240.187 59.9263C240.874 59.8655 241.388 59.611 241.727 59.1627C242.066 58.7144 242.209 58.179 242.154 57.5564L241.529 50.4941C241.471 49.8326 241.217 49.3256 240.768 48.9732C240.331 48.6196 239.802 48.4704 239.179 48.5254L228.07 49.5073L227.645 44.7018L238.754 43.7199C239.455 43.658 240.218 43.7147 241.044 43.8901C241.883 44.0643 242.671 44.3999 243.407 44.8969C244.156 45.3797 244.803 46.048 245.349 46.9016C245.894 47.7423 246.223 48.7982 246.335 50.0693L246.963 57.1706Z" fill="black"/>
<path d="M273.86 67.9095C273.826 68.7813 273.685 69.5576 273.437 70.2386C273.189 70.9327 272.872 71.5328 272.488 72.0391C272.103 72.5585 271.662 72.9909 271.167 73.3366C270.671 73.6952 270.151 73.9813 269.609 74.1948C269.079 74.4088 268.539 74.5572 267.989 74.6401C267.451 74.7365 266.941 74.7754 266.46 74.7567L257.306 74.4016L257.503 69.3273L266.657 69.6824C267.346 69.7092 267.867 69.5534 268.219 69.2153C268.571 68.8771 268.76 68.3762 268.785 67.7127L269.407 51.6896C269.433 51.026 269.283 50.5185 268.958 50.1671C268.633 49.8027 268.126 49.6071 267.436 49.5803L258.283 49.2252C257.659 49.201 257.157 49.377 256.777 49.7532C256.398 50.1164 256.197 50.5907 256.175 51.1762L255.908 58.046C255.882 58.7096 256.038 59.2238 256.376 59.5888C256.714 59.9537 257.221 60.1493 257.897 60.1755L267.012 60.5291L266.815 65.6034L257.662 65.2483C257.18 65.2296 256.675 65.1579 256.145 65.0331C255.616 64.8953 255.09 64.699 254.565 64.4441C254.054 64.1897 253.565 63.871 253.097 63.488C252.631 63.092 252.225 62.6267 251.881 62.0922C251.537 61.5446 251.268 60.9217 251.074 60.2235C250.88 59.5124 250.8 58.7209 250.834 57.8492L251.1 50.9793C251.119 50.4979 251.191 49.9925 251.316 49.4631C251.453 48.9342 251.649 48.4141 251.904 47.9027C252.159 47.3783 252.478 46.8825 252.861 46.4152C253.257 45.9485 253.722 45.543 254.257 45.1989C254.804 44.8553 255.427 44.5863 256.125 44.3918C256.823 44.1974 257.608 44.1171 258.48 44.1509L267.633 44.506C268.115 44.5247 268.62 44.6029 269.149 44.7407C269.691 44.866 270.218 45.0559 270.729 45.3103C271.254 45.5652 271.749 45.8906 272.216 46.2866C272.683 46.6696 273.089 47.1349 273.432 47.6825C273.777 48.217 274.046 48.8334 274.24 49.5316C274.435 50.2297 274.515 51.0147 274.481 51.8864L273.86 67.9095Z" fill="black"/>
<path d="M303.975 55.0956C303.896 55.7943 303.687 56.5371 303.348 57.3243C303.011 58.0984 302.525 58.8032 301.889 59.4386C301.268 60.0625 300.485 60.5566 299.539 60.9209C298.606 61.2866 297.506 61.3975 296.238 61.2533L287.137 60.2187L287.681 55.4254L296.783 56.46C297.469 56.5379 298.023 56.3912 298.445 56.0199C298.869 55.6356 299.116 55.1329 299.186 54.5119C299.261 53.8521 299.107 53.3104 298.722 52.8866C298.351 52.4644 297.868 52.2194 297.273 52.1518L288.171 51.1172C287.485 51.0392 286.931 51.1924 286.507 51.5767C286.085 51.948 285.838 52.4442 285.768 53.0652L284.967 60.1097C284.891 60.7824 285.038 61.3299 285.409 61.7522C285.794 62.1759 286.296 62.4231 286.917 62.4937L295.98 63.5239L295.433 68.3366L286.331 67.302C285.633 67.2226 284.89 67.0137 284.103 66.6752C283.329 66.3382 282.623 65.8583 281.986 65.2355C281.364 64.6012 280.87 63.8178 280.504 62.8851C280.14 61.9394 280.03 60.8327 280.174 59.5648L280.979 52.4815C281.058 51.7829 281.266 51.0465 281.603 50.2723C281.942 49.4852 282.422 48.7797 283.043 48.1558C283.679 47.5204 284.463 47.0198 285.396 46.6541C286.341 46.2898 287.448 46.1797 288.716 46.3238L297.818 47.3584C298.516 47.4379 299.253 47.6461 300.027 47.9831C300.814 48.3215 301.519 48.8079 302.141 49.4421C302.778 50.0649 303.279 50.8491 303.643 51.7948C304.009 52.7275 304.119 53.8278 303.975 55.0956Z" fill="black"/>
<path d="M355.174 82.2067C354.766 83.1224 354.278 83.8958 353.712 84.5269C353.162 85.1515 352.573 85.6584 351.943 86.0476C351.313 86.4367 350.655 86.7135 349.968 86.8778C349.282 87.0421 348.61 87.1272 347.951 87.1329C347.293 87.1386 346.652 87.0736 346.028 86.9379C345.416 86.8075 344.86 86.6309 344.361 86.4082L326.47 78.4278L328.539 73.7901L346.43 81.7705C347.321 82.1683 348.128 82.2144 348.849 81.9086C349.582 81.6082 350.144 81.018 350.537 80.138C350.728 79.7099 350.837 79.2883 350.866 78.8732C350.894 78.4582 350.842 78.0641 350.709 77.6911C350.587 77.3234 350.38 76.9886 350.087 76.6868C349.806 76.3903 349.451 76.1466 349.023 75.9556L338.357 71.1976C337.608 70.8634 336.857 70.3719 336.106 69.7231C335.36 69.0624 334.745 68.2676 334.261 67.3389C333.789 66.4155 333.518 65.3607 333.448 64.1748C333.39 62.9941 333.672 61.7081 334.292 60.3168C334.913 58.9255 335.679 57.8629 336.591 57.1291C337.52 56.3887 338.486 55.8856 339.488 55.6199C340.508 55.3476 341.51 55.2743 342.495 55.3999C343.485 55.5136 344.355 55.7375 345.104 56.0717L360.89 63.1132L358.821 67.7509L343.035 60.7094C342.155 60.3168 341.346 60.2767 340.608 60.5891C339.882 60.9067 339.322 61.5055 338.93 62.3855C338.532 63.2773 338.46 64.0936 338.714 64.8343C338.986 65.5684 339.561 66.1318 340.441 66.5243L351.108 71.2823L351.144 71.2982C351.638 71.5329 352.135 71.8402 352.636 72.2204C353.141 72.5886 353.61 73.0255 354.04 73.5311C354.482 74.042 354.863 74.611 355.182 75.2381C355.506 75.8533 355.734 76.5252 355.865 77.2539C356.008 77.9878 356.031 78.7679 355.933 79.594C355.836 80.4202 355.583 81.2911 355.174 82.2067Z" fill="black"/>
<path d="M380.111 94.0973L366.411 85.7637L369.071 81.3919L382.77 89.7255L380.111 94.0973ZM376.115 105.063L360.463 95.542C359.862 95.1766 359.27 94.6716 358.687 94.0272C358.104 93.3827 357.651 92.6352 357.331 91.7847C357.028 90.9298 356.904 89.9934 356.959 88.9754C357.032 87.9531 357.411 86.8802 358.094 85.7566L367.615 70.1048C367.798 69.8044 368.026 69.5546 368.3 69.3553C368.574 69.156 368.866 69.0137 369.177 68.9285C369.499 68.8501 369.827 68.8365 370.162 68.8876C370.496 68.9388 370.82 69.0591 371.131 69.2486L390.671 81.1349L388.032 85.4733L370.644 74.8965L362.433 88.3958C362.088 88.9631 361.974 89.4883 362.091 89.9714C362.209 90.4544 362.557 90.8719 363.136 91.2238L378.754 100.725L376.115 105.063Z" fill="black"/>
<path d="M407.963 116.635C406.899 117.969 405.691 119.012 404.34 119.767C402.989 120.521 401.581 120.98 400.117 121.145C398.653 121.309 397.179 121.174 395.694 120.739C394.227 120.301 392.837 119.559 391.524 118.511L386.15 114.223C384.837 113.176 383.8 111.982 383.037 110.64C382.283 109.289 381.824 107.881 381.659 106.418C381.495 104.954 381.625 103.475 382.05 101.982C382.485 100.497 383.235 99.0878 384.299 97.7544L387.636 93.5712C388.692 92.2481 389.896 91.2094 391.247 90.4553C392.617 89.699 394.029 89.2437 395.485 89.0893C396.949 88.9247 398.423 89.0601 399.908 89.4954C401.394 89.9306 402.793 90.6721 404.105 91.7197L409.48 96.0075C410.793 97.0551 411.821 98.2504 412.565 99.5936C413.319 100.945 413.778 102.353 413.943 103.816C414.116 105.27 413.98 106.745 413.537 108.24C413.102 109.725 412.356 111.129 411.301 112.452L407.963 116.635ZM407.331 109.285C407.956 108.501 408.394 107.692 408.643 106.858C408.91 106.022 408.993 105.198 408.893 104.384C408.81 103.569 408.546 102.783 408.099 102.027C407.671 101.27 407.076 100.586 406.312 99.9769L400.938 95.6891C400.165 95.072 399.356 94.6348 398.512 94.3776C397.686 94.1184 396.861 94.0351 396.038 94.1277C395.222 94.2101 394.432 94.4704 393.666 94.9086C392.918 95.3447 392.231 95.9546 391.606 96.7383L388.268 100.922C387.643 101.705 387.197 102.515 386.929 103.351C386.68 104.185 386.602 105.014 386.695 105.838C386.795 106.651 387.06 107.436 387.488 108.194C387.934 108.95 388.544 109.637 389.317 110.254L394.661 114.517C395.434 115.135 396.234 115.573 397.06 115.832C397.904 116.089 398.734 116.177 399.55 116.094C400.373 116.002 401.159 115.737 401.906 115.301C402.672 114.863 403.368 114.252 403.993 113.468L407.331 109.285Z" fill="black"/>
</g>
<defs>
<clipPath id="clip0_1022_355">
<rect width="500" height="500" fill="white"/>
</clipPath>
</defs>
</svg>
