<svg width="500" height="500" viewBox="0 0 500 500" fill="none" xmlns="http://www.w3.org/2000/svg">
<g clip-path="url(#clip0_1025_67)">
<path d="M80.2215 177.141L80.3492 177.428L80.6637 177.438L148.119 179.414C135.676 196.818 127.955 217.156 125.716 238.444C123.444 260.045 126.898 281.863 135.731 301.707C144.563 321.55 158.463 338.719 176.033 351.489C193.525 364.202 214.041 372.108 235.538 374.423L264.163 438.717L222.733 495.999C179.898 491.437 139.01 475.707 104.161 450.379C69.234 424.994 41.6033 390.864 24.0457 351.418C6.48809 311.972 -0.377953 268.599 4.13755 225.659C8.62281 183.006 24.1807 142.272 49.2613 107.494L80.2215 177.141Z" fill="#FFFC62" stroke="black"/>
<path d="M401.66 136.036L401.33 135.981L401.153 136.266L363.004 197.871C354.153 178.392 340.4 161.536 323.083 148.953C305.512 136.185 284.89 128.267 263.289 125.994C241.687 123.721 219.869 127.174 200.025 136.006C180.262 144.801 163.151 158.623 150.396 176.091L82.6432 174.089L51.5243 104.195C76.8929 69.3793 110.96 41.8344 150.319 24.318C189.767 6.76244 233.14 -0.10134 276.08 4.4164C319.02 8.93415 360.015 24.6743 394.944 50.055C429.623 75.2535 457.111 109.073 474.69 148.158L401.66 136.036Z" fill="#6A87CA" stroke="black"/>
<path d="M267.753 439.311L267.922 439.078L267.805 438.815L239.301 374.794C260.621 376.884 282.124 373.405 301.703 364.689C321.546 355.855 338.715 341.955 351.483 324.384C364.252 306.813 372.171 286.191 374.445 264.591C376.71 243.077 373.295 221.348 364.544 201.568L402.863 139.65L476.236 151.873C493.709 191.255 500.533 234.537 496.022 277.388C491.502 320.328 475.76 361.322 450.377 396.25C424.995 431.179 390.866 458.811 351.421 476.371C312.239 493.814 269.182 500.707 226.522 496.375L267.753 439.311Z" fill="#6A87CA" stroke="black"/>
<path d="M133.82 109.702C135.016 110.917 135.909 112.24 136.496 113.672C137.084 115.104 137.372 116.556 137.36 118.029C137.349 119.502 137.039 120.95 136.429 122.373C135.82 123.777 134.917 125.068 133.72 126.246L128.822 131.07C127.625 132.249 126.315 133.137 124.893 133.733C123.461 134.321 122.009 134.609 120.536 134.598C119.063 134.586 117.61 134.281 116.179 133.68C114.756 133.071 113.446 132.159 112.25 130.943L108.495 127.13C107.307 125.924 106.419 124.605 105.832 123.174C105.244 121.724 104.961 120.267 104.981 118.803C104.993 117.33 105.303 115.882 105.912 114.46C106.522 113.037 107.425 111.737 108.622 110.558L113.52 105.734C114.717 104.555 116.026 103.677 117.449 103.099C118.88 102.511 120.333 102.223 121.806 102.234C123.27 102.236 124.718 102.547 126.149 103.165C127.572 103.775 128.877 104.682 130.065 105.889L133.82 109.702ZM126.446 109.452C125.743 108.737 124.992 108.207 124.194 107.86C123.395 107.495 122.586 107.314 121.767 107.316C120.948 107.301 120.136 107.47 119.332 107.823C118.529 108.157 117.779 108.667 117.083 109.352L112.185 114.176C111.48 114.871 110.949 115.621 110.593 116.429C110.237 117.218 110.056 118.027 110.05 118.856C110.034 119.675 110.198 120.491 110.542 121.304C110.886 122.098 111.409 122.853 112.113 123.567L115.868 127.38C116.571 128.095 117.322 128.634 118.12 129C118.919 129.346 119.732 129.523 120.561 129.529C121.38 129.526 122.192 129.358 122.995 129.023C123.799 128.67 124.554 128.147 125.259 127.452L130.129 122.656C130.834 121.961 131.365 121.22 131.721 120.43C132.077 119.623 132.263 118.81 132.278 117.99C132.285 117.162 132.116 116.35 131.772 115.556C131.428 114.743 130.905 113.979 130.201 113.265L126.446 109.452Z" fill="black"/>
<path d="M162.848 101.783L158.807 104.86L151.708 95.5364C151.306 95.0081 150.854 94.6077 150.352 94.3353C149.852 94.0447 149.333 93.8675 148.793 93.8037C148.253 93.7399 147.712 93.7921 147.169 93.9601C146.628 94.1099 146.115 94.3701 145.628 94.7409L138.558 100.125L148.272 112.882L144.232 115.959L132.967 101.165C132.754 100.886 132.609 100.587 132.531 100.27C132.445 99.9427 132.429 99.6199 132.481 99.3018C132.526 98.9733 132.633 98.6626 132.802 98.3697C132.972 98.0768 133.197 97.8238 133.477 97.6109L142.582 90.6771C143.09 90.2905 143.667 89.9413 144.313 89.6292C144.97 89.3093 145.671 89.0698 146.417 88.9107C147.166 88.7334 147.939 88.6522 148.736 88.6673C149.535 88.664 150.34 88.7962 151.149 89.0637C151.961 89.313 152.757 89.7135 153.537 90.2651C154.317 90.8167 155.054 91.5483 155.748 92.46L162.848 101.783Z" fill="black"/>
<path d="M205.486 71.0278C205.766 72.1523 205.877 73.1914 205.82 74.1451C205.762 75.0987 205.578 75.9765 205.268 76.7784C204.967 77.5645 204.567 78.2747 204.068 78.9091C203.568 79.5435 203.015 80.0972 202.409 80.5705C201.814 81.0405 201.187 81.4316 200.527 81.7437C199.879 82.0527 199.252 82.2827 198.646 82.4338L187.502 85.2102L186.274 80.2827L197.418 77.5063C198.037 77.2984 198.574 77.0304 199.029 76.7023C199.494 76.3585 199.865 75.964 200.144 75.519C200.422 75.0739 200.601 74.5798 200.68 74.0367C200.756 73.481 200.716 72.8872 200.558 72.2555L200.001 70.0192C199.784 69.4158 199.509 68.8803 199.178 68.4126C198.847 67.945 198.459 67.572 198.014 67.2938C197.581 67.0123 197.094 66.8319 196.551 66.7526C196.004 66.6605 195.409 66.6948 194.765 66.8553L183.659 69.6222C183.002 69.7859 182.545 70.0808 182.289 70.507C182.033 70.9331 181.985 71.4683 182.146 72.1127L187.193 92.3723L182.266 93.5999L177.218 73.3403C176.903 72.0769 176.863 70.9463 177.098 69.9485C177.345 68.9476 177.742 68.0906 178.289 67.3773C178.848 66.6609 179.503 66.0819 180.251 65.6404C180.997 65.1862 181.711 64.8742 182.393 64.7042L193.537 61.9278C194.649 61.6508 195.683 61.5474 196.64 61.6177C197.594 61.6753 198.465 61.8608 199.254 62.174C200.053 62.4715 200.763 62.8716 201.385 63.3742C202.019 63.8737 202.573 64.4268 203.046 65.0335C203.529 65.6245 203.926 66.2501 204.239 66.9104C204.548 67.558 204.778 68.1851 204.929 68.7915L205.486 71.0278Z" fill="black"/>
<path d="M232.082 74.5678C232.198 75.2612 232.203 76.0329 232.094 76.8829C231.984 77.72 231.711 78.5316 231.275 79.3177C230.85 80.0889 230.234 80.78 229.425 81.391C228.63 81.9999 227.603 82.41 226.344 82.6214L217.311 84.1383C216.617 84.2547 215.845 84.2589 214.996 84.1507C214.158 84.0404 213.348 83.7739 212.564 83.351C211.791 82.9131 211.1 82.2964 210.491 81.5008C209.88 80.6924 209.468 79.659 209.257 78.4005C209.141 77.7071 209.136 76.9354 209.245 76.0855C209.353 75.2355 209.619 74.425 210.044 73.6538C210.48 72.8677 211.096 72.1702 211.891 71.5613C212.7 70.9502 213.733 70.539 214.992 70.3277L224.025 68.8108L224.827 73.5877L215.794 75.1046C215.113 75.2189 214.622 75.5192 214.321 76.0054C214.018 76.4789 213.918 77.0238 214.021 77.6402C214.131 78.2951 214.429 78.7731 214.916 79.0744C215.412 79.3606 215.956 79.4541 216.547 79.3549L225.542 77.8445C226.223 77.7302 226.715 77.4363 227.018 76.9629C227.322 76.4895 227.421 75.9445 227.318 75.3282L226.144 68.3362C226.034 67.6813 225.741 67.1958 225.266 66.8795C224.803 66.5611 224.263 66.4537 223.647 66.5572L212.648 68.404L211.85 63.6464L222.848 61.7996C223.541 61.6831 224.307 61.6801 225.144 61.7904C225.994 61.8985 226.805 62.1715 227.579 62.6094C228.363 63.0323 229.06 63.6479 229.671 64.4563C230.28 65.2519 230.69 66.2789 230.901 67.5373L232.082 74.5678Z" fill="black"/>
<path d="M260.274 83.133C260.282 84.0053 260.179 84.7876 259.964 85.4797C259.749 86.1849 259.462 86.7996 259.102 87.3238C258.743 87.8611 258.324 88.3143 257.845 88.6833C257.367 89.0655 256.862 89.3762 256.331 89.6156C255.812 89.8548 255.28 90.0291 254.734 90.1384C254.201 90.2606 253.694 90.3239 253.212 90.3284L244.053 90.4144L244.005 85.3365L253.165 85.2505C253.855 85.2441 254.367 85.0635 254.703 84.7087C255.038 84.354 255.202 83.8446 255.196 83.1806L255.046 67.1462C255.039 66.4821 254.866 65.9824 254.524 65.6471C254.182 65.2987 253.666 65.1278 252.976 65.1342L243.816 65.2201C243.191 65.226 242.698 65.426 242.337 65.82C241.976 66.201 241.799 66.6844 241.804 67.2704L241.869 74.1451C241.875 74.8091 242.055 75.3152 242.41 75.6635C242.765 76.0117 243.281 76.1827 243.958 76.1763L253.079 76.0908L253.126 81.1687L243.967 81.2546C243.485 81.2591 242.977 81.2118 242.442 81.1126C241.907 81.0005 241.371 80.8297 240.835 80.6003C240.312 80.3709 239.808 80.0761 239.323 79.7161C238.838 79.343 238.41 78.8978 238.041 78.3804C237.671 77.85 237.373 77.2407 237.145 76.5528C236.917 75.8517 236.799 75.065 236.791 74.1927L236.726 67.318C236.722 66.8362 236.769 66.328 236.868 65.7932C236.98 65.2582 237.151 64.7293 237.381 64.2062C237.61 63.6702 237.905 63.1596 238.265 62.6744C238.638 62.1892 239.083 61.7618 239.6 61.3923C240.131 61.0228 240.74 60.7241 241.428 60.4962C242.116 60.2684 242.896 60.1504 243.769 60.1422L252.928 60.0563C253.41 60.0518 253.918 60.1056 254.453 60.2178C255.001 60.3168 255.537 60.4811 256.06 60.7106C256.596 60.9399 257.106 61.2412 257.592 61.6142C258.077 61.9743 258.504 62.4195 258.874 62.9499C259.243 63.4673 259.542 64.07 259.77 64.758C259.997 65.446 260.115 66.2262 260.124 67.0985L260.274 83.133Z" fill="black"/>
<path d="M289.922 70.6849C289.862 71.3854 289.673 72.1337 289.356 72.9298C289.041 73.7129 288.574 74.4308 287.956 75.0833C287.352 75.724 286.582 76.2394 285.647 76.6294C284.724 77.0206 283.627 77.1615 282.356 77.0521L273.23 76.2671L273.643 71.4606L282.77 72.2456C283.457 72.3048 284.007 72.143 284.419 71.7602C284.832 71.3644 285.065 70.8552 285.119 70.2325C285.176 69.5709 285.006 69.0336 284.61 68.6205C284.228 68.2086 283.738 67.977 283.141 67.9256L274.015 67.1406C273.327 67.0815 272.777 67.2498 272.364 67.6455C271.952 68.0283 271.719 68.531 271.666 69.1537L271.058 76.2175C271 76.8921 271.162 77.4353 271.545 77.8472C271.941 78.2603 272.45 78.4936 273.073 78.5471L282.16 79.3288L281.745 84.1548L272.619 83.3697C271.918 83.3095 271.17 83.1209 270.374 82.8042C269.591 82.4885 268.872 82.0281 268.219 81.423C267.579 80.806 267.064 80.0363 266.672 79.114C266.282 78.1787 266.142 77.0754 266.251 75.804L266.862 68.7013C266.923 68.0008 267.111 67.259 267.426 66.4759C267.743 65.6798 268.204 64.9614 268.808 64.3207C269.426 63.6681 270.196 63.1463 271.118 62.7551C272.053 62.3651 273.157 62.2248 274.428 62.3341L283.555 63.1192C284.255 63.1794 284.997 63.3674 285.78 63.6831C286.576 63.9999 287.294 64.4667 287.934 65.0837C288.587 65.6888 289.109 66.4591 289.499 67.3944C289.89 68.3167 290.031 69.4135 289.922 70.6849Z" fill="black"/>
<path d="M333.626 93.1958C333.218 94.1115 332.73 94.8849 332.164 95.5161C331.614 96.1407 331.024 96.6475 330.395 97.0367C329.765 97.4259 329.107 97.7026 328.42 97.8669C327.734 98.0313 327.062 98.1163 326.403 98.122C325.745 98.1277 325.104 98.0627 324.48 97.9271C323.868 97.7967 323.312 97.6201 322.813 97.3973L304.922 89.4169L306.991 84.7793L324.881 92.7596C325.773 93.1575 326.58 93.2035 327.301 92.8978C328.033 92.5973 328.596 92.0071 328.989 91.1271C329.18 90.6991 329.289 90.2775 329.318 89.8624C329.346 89.4473 329.294 89.0532 329.161 88.6802C329.039 88.3125 328.832 87.9778 328.539 87.6759C328.258 87.3794 327.903 87.1357 327.475 86.9447L316.809 82.1867C316.059 81.8526 315.309 81.3611 314.558 80.7122C313.812 80.0515 313.197 79.2568 312.713 78.328C312.241 77.4046 311.97 76.3499 311.9 75.1639C311.842 73.9832 312.123 72.6972 312.744 71.3059C313.365 69.9146 314.131 68.8521 315.043 68.1182C315.972 67.3778 316.938 66.8747 317.94 66.609C318.96 66.3367 319.962 66.2634 320.947 66.389C321.937 66.5027 322.807 66.7267 323.556 67.0608L339.342 74.1024L337.273 78.74L321.487 71.6985C320.607 71.306 319.798 71.2659 319.06 71.5782C318.334 71.8958 317.774 72.4946 317.382 73.3746C316.984 74.2665 316.912 75.0827 317.166 75.8234C317.438 76.5576 318.013 77.1209 318.893 77.5134L329.56 82.2714L329.596 82.2873C330.09 82.522 330.587 82.8294 331.088 83.2095C331.593 83.5777 332.061 84.0146 332.492 84.5202C332.934 85.0311 333.315 85.6001 333.634 86.2272C333.958 86.8424 334.186 87.5144 334.317 88.243C334.46 88.9769 334.483 89.757 334.385 90.5831C334.288 91.4093 334.035 92.2802 333.626 93.1958Z" fill="black"/>
<path d="M358.562 105.087L344.863 96.7529L347.522 92.3811L361.222 100.715L358.562 105.087ZM354.567 116.052L338.915 106.531C338.314 106.166 337.722 105.661 337.139 105.016C336.555 104.372 336.103 103.624 335.782 102.774C335.479 101.919 335.355 100.983 335.411 99.9646C335.484 98.9423 335.862 97.8694 336.546 96.7458L346.067 81.094C346.25 80.7936 346.478 80.5438 346.752 80.3445C347.025 80.1452 347.318 80.0029 347.628 79.9177C347.95 79.8393 348.279 79.8257 348.613 79.8768C348.948 79.928 349.271 80.0483 349.583 80.2378L369.122 92.1241L366.483 96.4625L349.096 85.8857L340.884 99.385C340.539 99.9523 340.425 100.478 340.543 100.961C340.661 101.444 341.009 101.861 341.587 102.213L357.206 111.714L354.567 116.052Z" fill="black"/>
<path d="M386.415 127.625C385.351 128.958 384.143 130.002 382.792 130.756C381.441 131.51 380.033 131.969 378.569 132.134C377.105 132.298 375.631 132.163 374.146 131.728C372.679 131.29 371.289 130.548 369.976 129.5L364.602 125.213C363.289 124.165 362.252 122.971 361.489 121.63C360.735 120.278 360.276 118.871 360.111 117.407C359.947 115.943 360.077 114.464 360.502 112.971C360.937 111.486 361.687 110.077 362.751 108.744L366.088 104.56C367.144 103.237 368.348 102.199 369.699 101.444C371.068 100.688 372.481 100.233 373.937 100.078C375.401 99.9139 376.875 100.049 378.36 100.485C379.845 100.92 381.244 101.661 382.557 102.709L387.931 106.997C389.244 108.044 390.273 109.24 391.017 110.583C391.771 111.934 392.23 113.342 392.395 114.806C392.568 116.259 392.432 117.734 391.989 119.229C391.554 120.714 390.808 122.118 389.752 123.441L386.415 127.625ZM385.783 120.274C386.408 119.49 386.845 118.682 387.095 117.848C387.362 117.011 387.445 116.187 387.344 115.373C387.262 114.558 386.998 113.772 386.551 113.017C386.123 112.259 385.528 111.575 384.764 110.966L379.39 106.678C378.617 106.061 377.808 105.624 376.964 105.367C376.138 105.108 375.313 105.024 374.49 105.117C373.674 105.199 372.883 105.459 372.117 105.898C371.37 106.334 370.683 106.944 370.058 107.727L366.72 111.911C366.095 112.694 365.649 113.504 365.381 114.34C365.132 115.175 365.054 116.003 365.146 116.827C365.247 117.64 365.512 118.426 365.94 119.184C366.386 119.939 366.996 120.626 367.769 121.243L373.113 125.507C373.886 126.124 374.686 126.562 375.512 126.821C376.356 127.078 377.186 127.166 378.001 127.083C378.825 126.991 379.611 126.726 380.358 126.29C381.124 125.852 381.82 125.241 382.445 124.457L385.783 120.274Z" fill="black"/>
<path d="M420.065 223.234L415.805 200.465C415.738 200.107 415.739 199.762 415.81 199.431C415.88 199.1 416.003 198.799 416.177 198.528C416.367 198.267 416.603 198.044 416.887 197.859C417.17 197.673 417.491 197.547 417.849 197.48L442.864 192.799L443.798 197.791L421.26 202.008L425.057 222.3L420.065 223.234Z" fill="black"/>
<path d="M447.212 231.29L446.818 226.228L451.394 225.872L451.788 230.935L447.212 231.29ZM421.839 233.263L421.445 228.2L442.495 226.564L442.889 231.626L421.839 233.263Z" fill="black"/>
<path d="M422.204 262.412L422.356 257.336L434.069 257.685C434.733 257.705 435.329 257.606 435.857 257.387C436.397 257.182 436.861 256.889 437.25 256.51C437.64 256.131 437.94 255.678 438.151 255.15C438.375 254.635 438.496 254.072 438.514 253.461L438.779 244.578L422.751 244.1L422.902 239.024L441.488 239.578C441.839 239.589 442.163 239.664 442.458 239.803C442.767 239.942 443.028 240.132 443.242 240.373C443.47 240.614 443.644 240.893 443.764 241.209C443.885 241.526 443.94 241.859 443.93 242.211L443.589 253.651C443.57 254.289 443.478 254.957 443.314 255.656C443.149 256.367 442.894 257.063 442.548 257.743C442.215 258.436 441.791 259.088 441.278 259.698C440.778 260.322 440.169 260.864 439.452 261.324C438.747 261.798 437.935 262.165 437.015 262.424C436.096 262.683 435.063 262.795 433.918 262.761L422.204 262.412Z" fill="black"/>
<path d="M419.173 291.492L420.175 284.237L431.365 275.451C431.959 274.954 432.641 274.779 433.409 274.925C433.767 275 434.09 275.137 434.378 275.335C434.677 275.547 434.917 275.81 435.097 276.124L441.238 286.337L440.126 294.386L432.223 281.228L419.173 291.492ZM421.861 272.029L422.556 266.998L452.312 271.108L451.618 276.138L421.861 272.029Z" fill="black"/>
<path d="M407.198 337.129C406.625 336.88 406.054 336.511 405.485 336.023C404.911 335.547 404.442 334.96 404.078 334.262C403.709 333.576 403.489 332.792 403.418 331.909C403.359 331.032 403.555 330.074 404.006 329.035L411.688 311.354C411.833 311.02 412.027 310.735 412.271 310.5C412.515 310.265 412.786 310.085 413.082 309.958C413.385 309.848 413.706 309.796 414.044 309.801C414.383 309.806 414.719 309.881 415.054 310.027L436.049 319.148C436.371 319.288 436.65 319.48 436.885 319.724C437.119 319.968 437.3 320.238 437.427 320.534C437.548 320.843 437.607 321.166 437.602 321.504C437.596 321.843 437.521 322.179 437.376 322.514L430.605 338.099C430.356 338.672 429.988 339.243 429.499 339.812C429.011 340.38 428.418 340.847 427.72 341.211C427.029 341.592 426.245 341.812 425.368 341.871C424.485 341.942 423.524 341.752 422.485 341.3L421.608 340.919C420.784 340.561 419.954 340.037 419.117 339.347C418.293 338.663 417.59 337.832 417.006 336.854C416.456 337.24 415.855 337.561 415.204 337.818C414.548 338.086 413.846 338.264 413.098 338.351C412.351 338.438 411.556 338.419 410.716 338.295C409.875 338.172 409.001 337.913 408.094 337.518L407.198 337.129ZM410.117 332.861C410.726 333.125 411.311 333.266 411.872 333.282C412.444 333.304 412.979 333.217 413.476 333.021C413.973 332.825 414.417 332.521 414.809 332.109C415.213 331.703 415.547 331.195 415.811 330.586L420.372 320.088L425.065 322.127L421.415 330.529C421.151 331.138 421.002 331.726 420.968 332.294C420.946 332.866 421.034 333.401 421.229 333.898C421.425 334.395 421.723 334.836 422.123 335.223C422.53 335.627 423.038 335.961 423.647 336.226L424.524 336.607C425.193 336.897 425.668 336.72 425.948 336.075L431.714 322.801L415.341 315.688L408.664 331.058C408.628 331.142 408.59 331.246 408.55 331.371C408.51 331.495 408.499 331.618 408.517 331.74C408.535 331.861 408.6 331.989 408.713 332.123C408.825 332.257 409.006 332.378 409.257 332.487L410.117 332.861Z" fill="black"/>
<path d="M388.988 360.44C388.676 360.251 388.42 360.02 388.22 359.746C388.021 359.473 387.881 359.175 387.803 358.853C387.728 358.549 387.716 358.23 387.767 357.895C387.811 357.572 387.924 357.26 388.106 356.959L394.06 347.139C394.384 346.604 394.793 346.068 395.287 345.53C395.774 345.003 396.33 344.525 396.955 344.097C397.591 343.676 398.284 343.312 399.033 343.005C399.787 342.716 400.584 342.544 401.424 342.49C402.275 342.442 403.168 342.527 404.103 342.743C405.03 342.971 405.984 343.382 406.964 343.976L416.985 350.051L414.352 354.394L404.331 348.318C403.764 347.974 403.194 347.758 402.623 347.671C402.056 347.601 401.51 347.635 400.984 347.773C400.459 347.912 399.972 348.15 399.524 348.487C399.08 348.842 398.7 349.281 398.382 349.805L393.775 357.404L407.487 365.717L404.854 370.06L388.988 360.44Z" fill="black"/>
<path d="M399.941 383.725L402.999 379.671L406.663 382.434L403.605 386.489L399.941 383.725ZM379.623 368.401L382.68 364.346L399.537 377.06L396.479 381.114L379.623 368.401Z" fill="black"/>
<path d="M368.798 378.967L370.386 377.351C370.898 376.831 371.533 376.361 372.294 375.94C373.046 375.528 373.872 375.264 374.773 375.145C375.684 375.036 376.624 375.129 377.593 375.425C378.572 375.729 379.53 376.343 380.468 377.264L396.807 393.324L393.247 396.946L376.908 380.886C376.463 380.448 375.968 380.236 375.425 380.25C374.891 380.273 374.419 380.493 374.008 380.911L372.42 382.527L368.798 378.967Z" fill="black"/>
<path d="M352.303 401.059C351.742 400.391 351.32 399.717 351.037 399.036C350.763 398.365 350.593 397.708 350.529 397.065C350.473 396.432 350.508 395.815 350.634 395.216C350.769 394.627 350.965 394.071 351.223 393.549C351.471 393.034 351.767 392.556 352.11 392.115C352.452 391.691 352.807 391.325 353.176 391.015L360.19 385.123C360.858 384.562 361.527 384.144 362.198 383.87C362.869 383.595 363.526 383.426 364.169 383.362C364.81 383.316 365.431 383.356 366.03 383.482C366.619 383.616 367.171 383.807 367.685 384.055C368.208 384.313 368.686 384.609 369.119 384.942C369.551 385.294 369.917 385.649 370.219 386.008L374.641 391.272C375.478 392.269 376.007 393.262 376.226 394.252C376.443 395.26 376.463 396.204 376.284 397.085C376.105 397.984 375.775 398.797 375.296 399.522C374.817 400.248 374.309 400.836 373.77 401.289L366.757 407.181L363.49 403.293L370.474 397.426C370.993 396.99 371.273 396.525 371.316 396.029C371.368 395.544 371.18 395.047 370.753 394.539L366.356 389.305C365.912 388.776 365.447 388.486 364.962 388.435C364.466 388.392 363.965 388.584 363.456 389.011L356.442 394.903C355.914 395.347 355.633 395.813 355.6 396.299C355.567 396.786 355.764 397.284 356.191 397.793L370.928 415.334L367.04 418.601L352.303 401.059Z" fill="black"/>
<path d="M352.995 422.833L357.211 420.002L359.77 423.813L355.554 426.644L352.995 422.833ZM338.809 401.705L343.025 398.874L354.794 416.403L350.578 419.233L338.809 401.705Z" fill="black"/>
<path d="M313.933 415.997L318.429 413.634L323.881 424.007C324.19 424.595 324.569 425.065 325.019 425.417C325.463 425.787 325.946 426.048 326.467 426.2C326.989 426.353 327.531 426.391 328.095 426.316C328.653 426.258 329.202 426.087 329.744 425.802L337.611 421.667L330.15 407.473L334.645 405.111L343.296 421.57C343.46 421.881 343.553 422.199 343.577 422.525C343.608 422.862 343.57 423.183 343.466 423.488C343.367 423.805 343.21 424.093 342.994 424.354C342.778 424.615 342.515 424.827 342.203 424.99L332.072 430.315C331.507 430.612 330.88 430.86 330.191 431.061C329.491 431.267 328.759 431.387 327.997 431.42C327.229 431.47 326.454 431.422 325.67 431.275C324.881 431.145 324.11 430.881 323.357 430.483C322.598 430.102 321.879 429.575 321.202 428.902C320.524 428.228 319.919 427.384 319.386 426.37L313.933 415.997Z" fill="black"/>
<path d="M289.062 424.091C288.741 423.28 288.557 422.513 288.509 421.79C288.457 421.054 288.504 420.377 288.652 419.759C288.794 419.129 289.023 418.555 289.337 418.039C289.646 417.511 290.006 417.039 290.416 416.625C290.814 416.216 291.248 415.862 291.719 415.564C292.172 415.259 292.623 415.018 293.071 414.841L301.589 411.473L303.456 416.195L294.938 419.563C294.296 419.817 293.882 420.169 293.697 420.621C293.511 421.072 293.54 421.607 293.785 422.224L299.68 437.136C299.924 437.754 300.266 438.158 300.705 438.348C301.15 438.55 301.692 438.525 302.334 438.271L310.853 434.903C311.434 434.673 311.822 434.31 312.018 433.813C312.218 433.327 312.21 432.812 311.995 432.267L309.467 425.874C309.223 425.256 308.873 424.849 308.417 424.651C307.96 424.453 307.418 424.479 306.788 424.728L298.306 428.082L296.439 423.359L304.957 419.991C305.405 419.814 305.897 419.676 306.431 419.576C306.971 419.489 307.532 419.456 308.115 419.478C308.685 419.504 309.261 419.599 309.844 419.76C310.43 419.935 310.989 420.197 311.52 420.547C312.055 420.909 312.552 421.371 313.012 421.931C313.476 422.504 313.869 423.196 314.19 424.007L316.717 430.4C316.895 430.848 317.033 431.34 317.132 431.874C317.219 432.414 317.25 432.969 317.223 433.54C317.202 434.122 317.11 434.705 316.948 435.287C316.774 435.874 316.512 436.432 316.162 436.963C315.799 437.498 315.338 437.996 314.777 438.455C314.217 438.915 313.531 439.305 312.72 439.626L304.201 442.994C303.753 443.171 303.259 443.303 302.72 443.39C302.173 443.494 301.614 443.533 301.044 443.507C300.461 443.485 299.876 443.387 299.29 443.213C298.708 443.051 298.149 442.789 297.614 442.427C297.083 442.076 296.588 441.621 296.128 441.061C295.669 440.5 295.279 439.814 294.958 439.003L289.062 424.091Z" fill="black"/>
<path d="M221.537 421.256L226.07 421.841L225.278 427.978L241.212 430.034L242.004 423.898L246.537 424.483L244.924 436.982C244.688 438.807 244.158 440.446 243.332 441.899C242.506 443.352 241.465 444.559 240.206 445.519C238.948 446.479 237.518 447.169 235.916 447.588C234.314 448.008 232.612 448.101 230.811 447.869L220.595 446.55C220.281 446.51 219.992 446.414 219.728 446.261C219.464 446.109 219.241 445.915 219.059 445.679C218.877 445.443 218.745 445.177 218.665 444.884C218.585 444.59 218.565 444.286 218.606 443.972L221.537 421.256ZM240.627 434.567L224.693 432.51L223.428 442.308L231.396 443.336C231.535 443.354 231.834 443.369 232.294 443.381C232.74 443.403 233.27 443.371 233.884 443.285C234.486 443.197 235.134 443.027 235.828 442.774C236.523 442.521 237.181 442.133 237.804 441.611C238.427 441.089 238.976 440.404 239.452 439.555C239.914 438.717 240.227 437.664 240.391 436.397L240.627 434.567Z" fill="black"/>
<path d="M196.051 430.464L206.096 432.664C206.703 432.797 207.195 432.743 207.571 432.501C207.946 432.271 208.197 431.864 208.325 431.281L211.021 418.969L215.486 419.947L212.789 432.258C212.621 433.025 212.373 433.691 212.046 434.255C211.718 434.819 211.344 435.295 210.923 435.683C210.489 436.079 210.024 436.392 209.531 436.619C209.034 436.859 208.535 437.031 208.032 437.137C207.517 437.24 207.015 437.286 206.526 437.275C206.023 437.273 205.565 437.226 205.153 437.136L195.073 434.928L196.051 430.464Z" fill="black"/>
<path d="M172.802 423.413L180.419 425.793L184.724 412.019L189.137 413.398L184.832 427.172L190.503 428.945L189.14 433.307L183.469 431.535L181.618 437.457L177.205 436.078L179.056 430.156L171.439 427.775L172.802 423.413Z" fill="black"/>
<path d="M160.07 426.286L164.297 428.024L162.725 431.845L158.499 430.107L160.07 426.286ZM168.781 405.103L173.008 406.841L165.781 424.415L161.554 422.677L168.781 405.103Z" fill="black"/>
<path d="M146.017 392.67L157.023 398.364C157.586 398.655 158.148 399.071 158.712 399.614C159.276 400.156 159.729 400.799 160.069 401.543C160.395 402.292 160.564 403.125 160.578 404.042C160.575 404.964 160.302 405.951 159.758 407.003L156.915 412.498C156.716 412.883 156.464 413.268 156.16 413.651C155.846 414.03 155.487 414.379 155.085 414.698C154.677 415.028 154.227 415.31 153.736 415.544C153.235 415.773 152.701 415.926 152.134 416.002C151.557 416.072 150.946 416.053 150.303 415.945C149.66 415.837 148.99 415.602 148.292 415.241L137.285 409.547L139.385 405.488L150.392 411.182C150.923 411.457 151.399 411.531 151.82 411.406C152.231 411.275 152.581 410.929 152.872 410.367L155.699 404.903C155.974 404.372 156.043 403.893 155.908 403.467C155.772 403.04 155.434 402.687 154.892 402.407L143.917 396.729L146.017 392.67Z" fill="black"/>
<path d="M133.93 384.651L135.565 385.87C136.091 386.262 136.588 386.772 137.056 387.398C137.515 388.018 137.852 388.723 138.068 389.512C138.276 390.311 138.308 391.16 138.163 392.061C138.011 392.97 137.581 393.9 136.874 394.849L124.549 411.379L120.885 408.647L133.21 392.117C133.546 391.666 133.675 391.199 133.596 390.716C133.51 390.243 133.256 389.849 132.833 389.534L131.198 388.315L133.93 384.651Z" fill="black"/>
<path d="M105.517 375.585C105.938 375.112 106.477 374.674 107.135 374.271C107.784 373.876 108.507 373.61 109.304 373.473C110.085 373.336 110.918 373.379 111.802 373.602C112.678 373.817 113.544 374.306 114.402 375.07L120.559 380.552L117.672 383.795L111.515 378.313C111.051 377.9 110.567 377.72 110.064 377.774C109.553 377.837 109.111 378.078 108.737 378.498C108.339 378.945 108.172 379.423 108.235 379.934C108.289 380.438 108.517 380.868 108.92 381.227L115.077 386.709C115.541 387.122 116.028 387.298 116.539 387.235C117.042 387.181 117.481 386.944 117.855 386.523L122.098 381.758C122.503 381.303 122.679 380.824 122.625 380.321C122.562 379.81 122.321 379.367 121.901 378.993L115.77 373.534L118.669 370.278L124.826 375.761C125.298 376.181 125.736 376.721 126.14 377.378C126.534 378.027 126.804 378.746 126.949 379.535C127.078 380.324 127.035 381.156 126.82 382.032C126.598 382.917 126.104 383.788 125.341 384.645L121.074 389.437C120.653 389.91 120.118 390.343 119.469 390.738C118.811 391.141 118.092 391.411 117.312 391.548C116.515 391.685 115.678 391.646 114.803 391.432C113.918 391.209 113.047 390.716 112.189 389.952L106.032 384.47C105.56 384.049 105.126 383.514 104.732 382.864C104.328 382.207 104.062 381.484 103.934 380.694C103.788 379.906 103.827 379.069 104.05 378.185C104.264 377.309 104.754 376.443 105.517 375.585Z" fill="black"/>
<path d="M95.9501 332.758L104.139 347.069C104.348 347.435 104.535 347.855 104.698 348.329C104.845 348.798 104.946 349.294 105.002 349.816C105.051 350.327 105.041 350.853 104.972 351.392C104.892 351.937 104.733 352.474 104.495 353.002C104.241 353.525 103.894 354.027 103.454 354.509C103.004 354.996 102.438 355.434 101.756 355.824L91.0153 361.97C90.6492 362.18 90.2343 362.363 89.7707 362.52C89.2911 362.673 88.7955 362.775 88.2839 362.824C87.7621 362.88 87.2287 362.868 86.6835 362.788C86.1384 362.709 85.6071 362.547 85.0895 362.303C84.5559 362.055 84.0484 361.71 83.567 361.27C83.0857 360.83 82.65 360.269 82.2601 359.588L74.0714 345.277L78.0382 343.007L86.2269 357.318C86.5237 357.837 86.888 358.155 87.3198 358.272C87.7515 358.39 88.237 358.294 88.7761 357.986L99.4865 351.858C99.9951 351.567 100.313 351.202 100.441 350.765C100.553 350.323 100.463 349.847 100.172 349.339L91.9832 335.028L95.9501 332.758Z" fill="black"/>
<path d="M72.5383 318.021L76.8479 327.358C77.1082 327.921 77.4483 328.281 77.8682 328.435C78.2775 328.595 78.7534 328.55 79.296 328.299L90.7393 323.017L92.6547 327.167L81.2114 332.449C80.4986 332.778 79.8184 332.982 79.171 333.061C78.5236 333.141 77.9183 333.13 77.3552 333.028C76.7766 332.921 76.2474 332.739 75.7678 332.483C75.2775 332.232 74.8384 331.938 74.4504 331.601C74.0575 331.253 73.7178 330.88 73.4314 330.483C73.1293 330.081 72.8899 329.688 72.7131 329.305L68.3887 319.936L72.5383 318.021Z" fill="black"/>
<path d="M65.7179 294.056C66.3134 293.842 66.9962 293.714 67.7662 293.674C68.5253 293.638 69.2878 293.75 70.0538 294.01C70.8048 294.263 71.5156 294.698 72.1862 295.316C72.8528 295.924 73.3804 296.767 73.769 297.848L76.5586 305.606L72.4729 307.075L69.6833 299.317C69.4732 298.733 69.1342 298.344 68.6663 298.151C68.1874 297.962 67.6833 297.963 67.154 298.153C66.5916 298.356 66.2159 298.696 66.0269 299.175C65.834 299.643 65.8288 300.131 66.0112 300.638L68.8008 308.396C69.0109 308.98 69.3555 309.367 69.8344 309.556C70.3022 309.749 70.8008 309.75 71.3302 309.56L77.3346 307.4C77.9081 307.194 78.2912 306.857 78.4841 306.389C78.6731 305.91 78.6724 305.406 78.482 304.877L75.7044 297.152L79.8066 295.677L82.5962 303.435C82.8103 304.031 82.9375 304.713 82.9778 305.483C83.0141 306.242 82.9078 307.003 82.6587 307.765C82.3947 308.52 81.9591 309.231 81.352 309.897C80.7339 310.568 79.8845 311.098 78.8038 311.486L72.7662 313.657C72.1707 313.871 71.4935 313.997 70.7344 314.033C69.9643 314.073 69.2038 313.967 68.4528 313.714C67.6868 313.454 66.9705 313.02 66.3039 312.413C65.6333 311.795 65.1037 310.945 64.7151 309.865L61.9255 302.107C61.7114 301.511 61.5862 300.834 61.5498 300.075C61.5095 299.305 61.6214 298.543 61.8854 297.788C62.1345 297.026 62.568 296.309 63.1862 295.639C63.7933 294.972 64.6372 294.444 65.7179 294.056Z" fill="black"/>
<path d="M68.8744 268.861C69.4984 268.756 70.1929 268.752 70.958 268.848C71.7114 268.947 72.4421 269.192 73.1499 269.584C73.8442 269.966 74.4666 270.521 75.017 271.248C75.5656 271.963 75.9353 272.887 76.1263 274.02L77.4974 282.149C77.6027 282.773 77.6069 283.468 77.5101 284.233C77.4114 284.986 77.172 285.716 76.7919 286.422C76.3983 287.118 75.8437 287.74 75.1281 288.289C74.4009 288.839 73.4711 289.21 72.3387 289.401C71.7147 289.506 71.0202 289.511 70.2551 289.414C69.4901 289.317 68.7605 289.078 68.0662 288.696C67.3583 288.304 66.7302 287.75 66.1816 287.035C65.6312 286.308 65.2604 285.378 65.0694 284.245L63.6983 276.116L67.997 275.391L69.3681 283.52C69.4714 284.133 69.742 284.574 70.1798 284.845C70.6061 285.118 71.0966 285.208 71.6513 285.114C72.2406 285.015 72.6707 284.746 72.9415 284.308C73.1988 283.861 73.2826 283.371 73.1929 282.84L71.8277 274.745C71.7244 274.132 71.4596 273.69 71.0333 273.417C70.607 273.144 70.1165 273.055 69.5618 273.148L63.2698 274.21C62.6805 274.309 62.2437 274.573 61.9594 275.001C61.6731 275.418 61.5768 275.903 61.6703 276.458L63.3396 286.355L59.0583 287.077L57.389 277.18C57.2838 276.556 57.2805 275.867 57.3792 275.114C57.476 274.349 57.7212 273.618 58.1148 272.922C58.4949 272.216 59.0485 271.588 59.7757 271.037C60.4913 270.489 61.4153 270.119 62.5478 269.928L68.8744 268.861Z" fill="black"/>
<path d="M60.8462 246.747L60.5112 254.721L74.9301 255.327L74.736 259.945L60.3171 259.34L60.0677 265.276L55.5014 265.084L55.7508 259.148L49.5512 258.887L49.7453 254.268L55.9449 254.529L56.2799 246.555L60.8462 246.747Z" fill="black"/>
<path d="M52.4684 237.883L52.2388 242.447L48.1131 242.24L48.3427 237.675L52.4684 237.883ZM75.3437 239.033L75.1141 243.598L56.1362 242.643L56.3658 238.079L75.3437 239.033Z" fill="black"/>
<path d="M71.7166 212.403C72.4955 212.502 73.1863 212.69 73.789 212.967C74.38 213.243 74.8932 213.574 75.3285 213.96C75.7521 214.345 76.1052 214.773 76.3877 215.246C76.6586 215.718 76.8684 216.205 77.0171 216.708C77.1673 217.2 77.2637 217.697 77.3063 218.198C77.3388 218.687 77.3277 219.146 77.2731 219.576L76.2343 227.754C76.1545 228.382 75.957 229.054 75.6416 229.77C75.3262 230.486 74.8779 231.132 74.2968 231.708C73.7056 232.271 72.9816 232.716 72.1248 233.044C71.2578 233.359 70.2373 233.443 69.0631 233.293L62.925 232.514C61.7624 232.366 60.8067 232.032 60.0577 231.512C59.2985 230.978 58.7089 230.366 58.2887 229.674C57.8584 228.97 57.5801 228.232 57.4537 227.46C57.3273 226.688 57.304 225.988 57.3838 225.36L58.4226 217.182C58.5702 216.019 58.905 215.057 59.4269 214.297C59.9487 213.536 60.5611 212.947 61.264 212.528C61.9553 212.108 62.6869 211.835 63.459 211.708C64.2326 211.57 64.9391 211.542 65.5784 211.623L71.7166 212.403ZM65.0374 216.161C64.4097 216.082 63.9247 216.179 63.5826 216.455C63.2405 216.73 63.0318 217.165 62.9564 217.757L61.9221 225.901C61.8453 226.506 61.9439 226.985 62.2179 227.338C62.4803 227.691 62.9079 227.905 63.5008 227.98L69.639 228.759C70.2319 228.835 70.7052 228.735 71.059 228.461C71.4127 228.187 71.628 227.748 71.7048 227.144L72.7392 219C72.8174 218.384 72.7188 217.905 72.4433 217.563C72.1678 217.221 71.7336 217.012 71.1407 216.936L65.0374 216.161Z" fill="black"/>
<path d="M82.7429 187.659L81.7729 192.125L71.4663 189.887C70.8823 189.76 70.3388 189.75 69.836 189.856C69.3242 189.949 68.8649 190.131 68.4582 190.402C68.0515 190.674 67.7112 191.026 67.4375 191.458C67.1547 191.876 66.9549 192.354 66.838 192.893L65.1404 200.708L79.2432 203.772L78.2732 208.238L61.9201 204.686C61.6109 204.619 61.337 204.499 61.0985 204.328C60.8485 204.153 60.6486 203.942 60.4987 203.694C60.3373 203.443 60.2292 203.167 60.1744 202.868C60.1196 202.568 60.1258 202.263 60.1929 201.954L62.3793 191.888C62.5012 191.327 62.6923 190.751 62.9526 190.16C63.2153 189.557 63.5558 188.984 63.9739 188.439C64.3831 187.88 64.8649 187.373 65.4195 186.918C65.9651 186.449 66.5931 186.07 67.3035 185.781C68.005 185.477 68.7839 185.287 69.6402 185.209C70.4966 185.131 71.4286 185.202 72.4364 185.42L82.7429 187.659Z" fill="black"/>
</g>
<defs>
<clipPath id="clip0_1025_67">
<rect width="500" height="500" fill="white"/>
</clipPath>
</defs>
</svg>
